<?xml version="1.0" standalone="no"?><!DOCTYPE svg PUBLIC "-//W3C//DTD SVG 1.1//EN" "http://www.w3.org/Graphics/SVG/1.1/DTD/svg11.dtd"><svg t="1741336554026" class="icon" viewBox="0 0 1024 1024" version="1.1" xmlns="http://www.w3.org/2000/svg" p-id="1288" xmlns:xlink="http://www.w3.org/1999/xlink" width="64" height="64"><path d="M811.2 749.15h-25.33a17.5 17.5 0 0 1 0-35h25.33a32.25 32.25 0 0 0 32.22-32.21V337.71a32.25 32.25 0 0 0-32.22-32.21H441.06a8.74 8.74 0 0 0-7.87 4.66 86.29 86.29 0 0 1-154.65 0 8.77 8.77 0 0 0-7.88-4.66h-44.23a32.25 32.25 0 0 0-32.21 32.21v344.23a32.25 32.25 0 0 0 32.21 32.21h45.35a9.2 9.2 0 0 0 8-5 86.29 86.29 0 0 1 152.08 0 9.22 9.22 0 0 0 8.05 5h256.66a17.5 17.5 0 0 1 0 35H440a44.15 44.15 0 0 1-38.88-23.44 51.29 51.29 0 0 0-90.41 0 44.18 44.18 0 0 1-38.88 23.44h-45.4a67.29 67.29 0 0 1-67.21-67.21V337.71a67.29 67.29 0 0 1 67.21-67.21h44.23a44 44 0 0 1 39.24 24.11 51.28 51.28 0 0 0 91.93 0 44 44 0 0 1 39.23-24.11H811.2a67.29 67.29 0 0 1 67.22 67.21v344.23a67.29 67.29 0 0 1-67.22 67.21z" fill="#333333" p-id="1289"></path><path d="M358.5 494.73a17.5 17.5 0 0 1-17.5-17.5V407.5a17.5 17.5 0 0 1 35 0v69.73a17.5 17.5 0 0 1-17.5 17.5zM358.5 634.73a17.5 17.5 0 0 1-17.5-17.5V547.5a17.5 17.5 0 0 1 35 0v69.73a17.5 17.5 0 0 1-17.5 17.5z" fill="#333333" p-id="1290"></path><path d="M467.67 592.52a17.5 17.5 0 0 1-14.77-26.86l76.82-121.3a44.34 44.34 0 0 1 74-1.4l83.95 122.15a17.5 17.5 0 1 1-28.84 19.82l-84-122.14a9.34 9.34 0 0 0-15.59 0.29l-76.82 121.3a17.48 17.48 0 0 1-14.75 8.14z" fill="#3A9EFE" p-id="1291" data-spm-anchor-id="a313x.collections_detail.0.i3.71993a81cmdcBo" class="selected"></path><path d="M762.52 588a17.5 17.5 0 0 1-14.6-7.82l-54.28-81.81a3.85 3.85 0 0 0-6.58 0.27l-18.73 34.12a17.5 17.5 0 0 1-30.68-16.85l18.74-34.11a38.83 38.83 0 0 1 66.41-2.8l54.28 81.8a17.5 17.5 0 0 1-14.56 27.2z" fill="#3A9EFE" p-id="1292" data-spm-anchor-id="a313x.collections_detail.0.i4.71993a81cmdcBo" class="selected"></path></svg>