<?xml version="1.0" standalone="no"?><!DOCTYPE svg PUBLIC "-//W3C//DTD SVG 1.1//EN" "http://www.w3.org/Graphics/SVG/1.1/DTD/svg11.dtd"><svg t="1741336408455" class="icon" viewBox="0 0 1024 1024" version="1.1" xmlns="http://www.w3.org/2000/svg" p-id="4028" id="mx_n_1741336408456" xmlns:xlink="http://www.w3.org/1999/xlink" width="64" height="64"><path d="M816.66 668.13H258.92a95.14 95.14 0 0 1-56-17.7A97.66 97.66 0 0 1 164.57 553a95.1 95.1 0 0 1 28.9-51.12L356 350.41a326.46 326.46 0 0 1 223.31-87.91h270.43a17.5 17.5 0 0 1 0 35H579.31A291.59 291.59 0 0 0 379.89 376L217.33 527.49c-22.41 20.88-22.54 48.29-15.18 67s26.14 38.66 56.77 38.66h557.74a15.6 15.6 0 0 0 15.58-15.58V459.38A27.38 27.38 0 0 0 804.89 432h-70.61a27.38 27.38 0 0 0-27.35 27.35v120.78a17.5 17.5 0 0 1-35 0V459.38A62.42 62.42 0 0 1 734.28 397h70.61a62.42 62.42 0 0 1 62.35 62.35v158.2a50.64 50.64 0 0 1-50.58 50.58z" fill="#333333" p-id="4029"></path><path d="M495 476.06H352a17.5 17.5 0 0 1 0-35h143a47.25 47.25 0 0 0 47.2-47.2v-57.67a17.5 17.5 0 0 1 35 0v57.67a82.29 82.29 0 0 1-82.2 82.2z" fill="#3A9EFE" p-id="4030" data-spm-anchor-id="a313x.search_index.0.i3.705a3a81zC3Kdj" class="selected"></path><path d="M849.74 763H195a17.5 17.5 0 0 1 0-35h654.74a17.5 17.5 0 0 1 0 35z" fill="#333333" p-id="4031"></path></svg>