<?xml version="1.0" standalone="no"?><!DOCTYPE svg PUBLIC "-//W3C//DTD SVG 1.1//EN" "http://www.w3.org/Graphics/SVG/1.1/DTD/svg11.dtd"><svg t="1742209869706" class="icon" viewBox="0 0 1024 1024" version="1.1" xmlns="http://www.w3.org/2000/svg" p-id="4265" xmlns:xlink="http://www.w3.org/1999/xlink" width="64" height="64"><path d="M504.78 847.75c-87.49 0-169.74-34.07-231.61-95.93-61.86-61.86-95.93-144.12-95.93-231.61s34.07-169.74 95.93-231.61c61.86-61.86 144.12-95.93 231.61-95.93 11.05 0 20 8.95 20 20v287.54h287.54c11.05 0 20 8.95 20 20 0 87.49-34.07 169.74-95.93 231.61-61.86 61.86-144.12 95.93-231.61 95.93z m-20-614.4c-69.28 4.73-133.75 33.97-183.32 83.54-54.31 54.31-84.22 126.52-84.22 203.32s29.91 149.01 84.22 203.32 126.52 84.22 203.32 84.22 149.01-29.91 203.32-84.22c49.57-49.57 78.81-114.05 83.54-183.32H504.78c-11.05 0-20-8.95-20-20V233.35z" fill="#333333" p-id="4266"></path><path d="M837 457.3h-0.02l-249.1-0.19c-11.04 0-19.98-8.96-19.98-20V188.2c0-11.05 8.95-20 20-20 71.88 0 139.46 27.99 190.28 78.82S857 365.42 857 437.3c0 5.31-2.11 10.4-5.86 14.15A19.997 19.997 0 0 1 837 457.3z m-229.1-40.18l208.24 0.16c-4.61-53.65-27.73-103.46-66.24-141.98-38.52-38.52-88.35-61.64-142-66.25v208.06z" fill="#3A9EFE" p-id="4267" data-spm-anchor-id="a313x.collections_detail.0.i3.408e3a81QTX9cE" class="selected"></path><path d="M447.54 597.45c-5.12 0-10.24-1.95-14.14-5.86-7.81-7.81-7.81-20.47 0-28.28l57-57.01c7.81-7.81 20.47-7.81 28.28 0s7.81 20.47 0 28.28l-57 57.01a19.92 19.92 0 0 1-14.14 5.86z" fill="#333333" p-id="4268"></path></svg>