<?xml version="1.0" standalone="no"?><!DOCTYPE svg PUBLIC "-//W3C//DTD SVG 1.1//EN" "http://www.w3.org/Graphics/SVG/1.1/DTD/svg11.dtd"><svg t="1742209144223" class="icon" viewBox="0 0 1024 1024" version="1.1" xmlns="http://www.w3.org/2000/svg" p-id="12337" xmlns:xlink="http://www.w3.org/1999/xlink" width="64" height="64"><path d="M60.681481 462.696296l349.866667 15.170371c0-3.792593-0.948148-6.637037-0.948148-10.42963 0-48.355556 36.02963-88.177778 82.488889-95.762963l8.533333-128.948148h8.533334l8.533333 128c48.355556 4.740741 86.281481 46.459259 86.281481 95.762963 0 3.792593 0 7.585185-0.948148 11.377778l359.348148-15.170371-0.948148 7.585185-142.222222 19.911112 2.844444 2.844444c10.42963 10.42963 16.118519 23.703704 16.118519 39.822222 0 15.17037-6.637037 29.392593-16.118519 39.822222-10.42963 10.42963-23.703704 16.118519-39.822222 16.118519-15.17037 0-29.392593-6.637037-39.822222-16.118519-10.42963-10.42963-16.118519-23.703704-16.118519-39.822222 0-11.377778 3.792593-21.807407 9.481482-30.34074l-149.807407 20.859259c-17.066667 24.651852-46.459259 40.77037-78.696297 40.77037-33.185185 0-61.62963-16.118519-79.644444-41.718518L287.288889 502.518519c5.688889 8.533333 9.481481 18.962963 9.481481 30.34074 0 15.17037-6.637037 29.392593-16.118518 39.822222-10.42963 10.42963-23.703704 16.118519-39.822222 16.118519-15.17037 0-29.392593-6.637037-39.822223-16.118519-10.42963-10.42963-16.118519-23.703704-16.118518-39.822222 0-15.17037 6.637037-29.392593 16.118518-39.822222l2.844445-2.844444-142.222222-19.911112-0.948149-7.585185z m369.777778-2.844444l25.6 3.792592c0.948148-6.637037 1.896296-12.325926 2.844445-18.962963 0.948148-6.637037 2.844444-14.222222 5.688889-20.859259h-20.85926c-8.533333 10.42963-11.377778 22.755556-13.274074 36.02963z m34.133334 5.688889l34.133333 5.688889 4.740741-48.355556-29.392593 0.948148c-2.844444 7.585185-4.740741 15.17037-5.688889 23.703704-1.896296 5.688889-2.844444 11.377778-3.792592 18.014815z m53.096296 5.688889l34.133333-5.688889c-0.948148-5.688889-1.896296-12.325926-2.844444-18.014815l-5.688889-22.755556-30.340741-0.948148 4.740741 47.407408z m43.614815-7.585186l24.651852-3.792592c-0.948148-13.274074-4.740741-25.6-13.274075-36.02963h-19.911111c1.896296 7.585185 3.792593 14.222222 5.688889 20.859259 0.948148 6.637037 1.896296 13.274074 2.844445 18.962963z m219.97037 40.770371c-7.585185 0-14.222222 2.844444-18.962963 7.585185s-7.585185 11.377778-7.585185 18.962963 2.844444 14.222222 7.585185 18.962963 11.377778 7.585185 18.962963 7.585185 14.222222-2.844444 18.962963-7.585185 7.585185-11.377778 7.585185-18.962963-2.844444-14.222222-7.585185-18.962963c-4.740741-3.792593-11.377778-7.585185-18.962963-7.585185z m-12.325926 15.17037c-2.844444 2.844444-5.688889 7.585185-5.688889 13.274074 0 4.740741 1.896296 9.481481 5.688889 12.325926 2.844444 2.844444 7.585185 5.688889 13.274074 5.688889 4.740741 0 9.481481-1.896296 13.274074-5.688889 2.844444-2.844444 5.688889-7.585185 5.688889-12.325926s-1.896296-9.481481-5.688889-13.274074c-2.844444-2.844444-7.585185-5.688889-13.274074-5.688889-5.688889 0-10.42963 1.896296-13.274074 5.688889z m15.170371-25.6l-16.118519 2.844445c-4.740741 1.896296-9.481481 4.740741-13.274074 8.533333-6.637037 6.637037-11.377778 16.118519-11.377778 26.548148 0 10.42963 3.792593 19.911111 11.377778 26.548148 6.637037 6.637037 16.118519 11.377778 26.548148 11.377778 10.42963 0 19.911111-3.792593 26.548148-11.377778 6.637037-6.637037 11.377778-16.118519 11.377778-26.548148 0-10.42963-3.792593-19.911111-11.377778-26.548148-5.688889-6.637037-14.222222-10.42963-23.703703-11.377778z m-172.562963-55.940741c30.340741-6.637037 60.681481-12.325926 91.97037-18.962963 0-1.896296-0.948148-3.792593-0.948148-5.688888-34.133333 1.896296-68.266667 4.740741-102.4 6.637037 4.740741 4.740741 8.533333 11.377778 11.377778 18.014814z m-208.592593 0c2.844444-6.637037 6.637037-12.325926 12.325926-18.014814-34.133333-1.896296-68.266667-3.792593-102.4-6.637037 0 1.896296-0.948148 3.792593-0.948148 5.688888 29.392593 5.688889 60.681481 12.325926 91.022222 18.962963z m-163.081482 66.370371c-7.585185 0-14.222222 2.844444-18.962962 7.585185s-7.585185 11.377778-7.585186 18.962963 2.844444 14.222222 7.585186 18.962963 11.377778 7.585185 18.962962 7.585185 14.222222-2.844444 18.962963-7.585185 7.585185-11.377778 7.585186-18.962963-2.844444-14.222222-7.585186-18.962963c-4.740741-3.792593-11.377778-7.585185-18.962963-7.585185z m13.274075 15.17037c-2.844444-2.844444-7.585185-5.688889-13.274075-5.688889-4.740741 0-9.481481 1.896296-13.274074 5.688889-2.844444 2.844444-5.688889 7.585185-5.688888 13.274074 0 4.740741 1.896296 9.481481 5.688888 12.325926 2.844444 2.844444 7.585185 5.688889 13.274074 5.688889 4.740741 0 9.481481-1.896296 13.274075-5.688889 2.844444-2.844444 5.688889-7.585185 5.688888-12.325926-0.948148-5.688889-2.844444-10.42963-5.688888-13.274074z m0-22.755555l-16.118519-2.844445c-9.481481 0.948148-18.014815 4.740741-23.703704 11.377778-6.637037 6.637037-11.377778 16.118519-11.377777 26.548148 0 10.42963 3.792593 19.911111 11.377777 26.548148 6.637037 6.637037 16.118519 11.377778 26.548148 11.377778 10.42963 0 19.911111-3.792593 26.548149-11.377778 6.637037-6.637037 11.377778-16.118519 11.377777-26.548148 0-10.42963-3.792593-19.911111-11.377777-26.548148-3.792593-3.792593-7.585185-6.637037-13.274074-8.533333z" fill="#1BBB8E" p-id="12338"></path></svg>