<?xml version="1.0" standalone="no"?><!DOCTYPE svg PUBLIC "-//W3C//DTD SVG 1.1//EN" "http://www.w3.org/Graphics/SVG/1.1/DTD/svg11.dtd"><svg t="1742209850402" class="icon" viewBox="0 0 1024 1024" version="1.1" xmlns="http://www.w3.org/2000/svg" p-id="4132" id="mx_n_1742209850403" xmlns:xlink="http://www.w3.org/1999/xlink" width="64" height="64"><path d="M788.46 858H239.55c-36.21 0-65.67-29.46-65.67-65.67V639.51c0-36.21 29.46-65.67 65.67-65.67h165.76c19.48 0 36.55 12.43 42.48 30.94 9.26 28.88 35.87 48.28 66.22 48.28s56.96-19.4 66.22-48.28c5.93-18.51 23-30.94 42.48-30.94h165.76c36.21 0 65.67 29.46 65.67 65.67v152.82c0 36.21-29.46 65.67-65.67 65.67zM239.55 613.84c-14.16 0-25.67 11.52-25.67 25.67v152.82c0 14.16 11.52 25.67 25.67 25.67h548.91c14.16 0 25.67-11.52 25.67-25.67V639.51c0-14.16-11.52-25.67-25.67-25.67H622.7c-2.02 0-3.78 1.27-4.39 3.15-14.58 45.5-56.5 76.07-104.31 76.07s-89.73-30.57-104.31-76.07c-0.6-1.88-2.37-3.15-4.39-3.15H239.55z" fill="#333333" p-id="4133"></path><path d="M772.44 604.47c-11.05 0-20-8.95-20-20V289.82c0-17.54-14.27-31.81-31.81-31.81H307.38c-17.54 0-31.81 14.27-31.81 31.81v294.65c0 11.05-8.95 20-20 20s-20-8.95-20-20V289.82c0-39.6 32.22-71.81 71.81-71.81h413.25c39.6 0 71.81 32.22 71.81 71.81v294.65c0 11.05-8.95 20-20 20z" fill="#333333" p-id="4134"></path><path d="M662.4 383H365.61c-11.05 0-20-8.95-20-20s8.95-20 20-20h296.78c11.05 0 20 8.95 20 20s-8.95 20-20 20zM551 479H366c-11.05 0-20-8.95-20-20s8.95-20 20-20h185c11.05 0 20 8.95 20 20s-8.95 20-20 20z" fill="#3A9EFE" p-id="4135" data-spm-anchor-id="a313x.collections_detail.0.i0.408e3a81QTX9cE" class="selected"></path></svg>