<?xml version="1.0" standalone="no"?><!DOCTYPE svg PUBLIC "-//W3C//DTD SVG 1.1//EN" "http://www.w3.org/Graphics/SVG/1.1/DTD/svg11.dtd"><svg t="1741082041169" class="icon" viewBox="0 0 1024 1024" version="1.1" xmlns="http://www.w3.org/2000/svg" p-id="46694" width="32" height="32" xmlns:xlink="http://www.w3.org/1999/xlink"><path d="M398.357333 763.093333h227.2c6.933333 0 12.757333 5.802667 12.757334 12.778667v12.8a12.885333 12.885333 0 0 1-12.757334 12.757333h-227.2a12.885333 12.885333 0 0 1-12.757333-12.757333v-12.8c0-6.976 5.824-12.757333 12.757333-12.757333zM650.666667 518.933333a38.4 38.4 0 0 0-37.930667 38.677334c0 21.269333 17.066667 38.72 37.930667 38.72 20.885333 0 37.930667-17.408 37.930666-38.72a38.4 38.4 0 0 0-37.930666-38.677334z m37.930666-167.189333a25.514667 25.514667 0 0 0-25.130666-25.941333H360.426667a25.514667 25.514667 0 0 0-25.130667 25.941333v102.912c0 14.336 11.221333 25.962667 25.130667 25.962667h303.061333a25.514667 25.514667 0 0 0 25.130667-25.962667v-102.912zM372.842667 596.309333c20.864 0 37.909333-17.408 37.909333-38.72a38.4 38.4 0 0 0-37.909333-38.677333 38.4 38.4 0 0 0-37.930667 38.677333c0.384 21.269333 17.002667 38.72 37.930667 38.72zM752.490667 823.893333a23.637333 23.637333 0 0 1-32.512-8.896l-51.882667-91.370666c-4.266667 0.789333-8.896 1.173333-13.141333 1.173333H369.322667c-4.608 0-8.896-0.384-13.141334-1.173333l-51.84 91.370666a23.701333 23.701333 0 0 1-32.533333 8.896 24.490667 24.490667 0 0 1-8.896-33.28l48.362667-85.141333a95.146667 95.146667 0 0 1-38.677334-83.968l18.197334-277.12c3.072-46.464 32.490667-83.2 82.432-83.2h75.861333c0-35.626667 28.224-64.256 63.04-64.256 34.858667 0 63.104 28.629333 63.104 64.234667h88.213333c50.346667 0 66.56 36.8 69.717334 83.221333l18.154666 277.12a95.146667 95.146667 0 0 1-38.677333 83.968l48.405333 85.141333c6.613333 11.562667 2.858667 26.325333-8.512 33.28h-0.042666z" fill="#1BBB8E" p-id="46695" data-spm-anchor-id="a313x.search_index.0.i60.2ce83a81JDThsH" class=""></path></svg>